<?xml version="1.0" encoding="UTF-8"?>
<!DOCTYPE svg PUBLIC "-//W3C//DTD SVG 1.1//EN" "http://www.w3.org/Graphics/SVG/1.1/DTD/svg11.dtd">
<!-- Creator: CorelDRAW -->
<svg xmlns="http://www.w3.org/2000/svg" xml:space="preserve" width="200px" height="235px" version="1.1" style="shape-rendering:geometricPrecision; text-rendering:geometricPrecision; image-rendering:optimizeQuality; fill-rule:evenodd; clip-rule:evenodd"
viewBox="0 0 199.85 235.08"
 xmlns:xlink="http://www.w3.org/1999/xlink"
 xmlns:xodm="http://www.corel.com/coreldraw/odm/2003">
 <defs>
  <style type="text/css">
   <![CDATA[
    .fil3 {fill:#019B4D}
    .fil1 {fill:#01A2E8}
    .fil4 {fill:#60A143}
    .fil2 {fill:#975823}
    .fil0 {fill:#CDDCA5}
   ]]>
  </style>
 </defs>
 <g id="Layer_x0020_1">
  <metadata id="CorelCorpID_0Corel-Layer"/>
  <g id="_1719365870992">
   <path class="fil0" d="M2.71 158.44l9.72 5.02c24.47,10.86 48.84,9.72 74.61,3.92l11.82 -2.75 -0.03 7.57c-0.08,0.86 -1.07,0.96 -1.8,1.26 -11.3,4.63 -23.16,9.24 -34.2,13.91 -9.01,3.8 -22.46,9.52 -24.98,19.71 -0.24,0.95 -0.37,1.77 -0.43,2.71 -0.12,1.78 0.26,2.53 -0.41,3 0.26,0.36 0.03,0.09 0.38,0.35 0.12,0.09 0.42,0.27 0.54,0.35 0.3,0.2 0.48,0.35 0.81,0.61 2.6,-0.27 1.64,-1.92 1.88,-4.24 1.09,-10.38 14.19,-15.48 23.29,-19.46l34.96 -14.13 0 7.61c-2.09,1.61 -31,10.84 -37.94,16.48 -1.81,1.47 -3.15,2.41 -4.44,4.62 -1.32,2.24 -1.7,4.53 -1.31,7.44 0.85,-0.13 2.65,-0.3 3.15,-0.84 -0.54,-5.54 3.14,-7.79 6.34,-9.84 2.9,-1.86 7.43,-3.87 10.94,-5.25 1.99,-0.78 21.67,-8.57 23.27,-8.96l-0.01 8.05c-2.35,0.55 -5.08,1.59 -7.42,2.31 -6.47,2.01 -16.4,4.69 -17.55,11.28 0.05,0.02 0.14,-0.02 0.16,0.04l0.49 0.05c0.07,0 0.83,-0.09 0.96,-0.11 0.7,-0.08 1.11,-0.16 1.8,-0.22 0.94,-3.27 6.73,-5.06 10.37,-6.4 1.57,-0.59 12.12,-4.09 12.84,-4.07 0.76,0.02 11.13,3.52 12.68,4.04 3.63,1.23 9.6,3.29 10.33,6.6l3.37 0.34c-0.4,-5.05 -5.88,-7.37 -10.25,-9.1 -4.58,-1.82 -9.84,-3.3 -14.56,-4.83l-0.01 -7.96 11.73 4.42c7.47,2.87 22.54,8.03 27.4,13.59 1.51,1.72 1.94,3.45 1.73,6.4l3.16 0.8c-0.05,-3.31 0.5,-4.56 -1.19,-7.45 -3.08,-5.28 -10.8,-8.73 -16.56,-11.05 -3.02,-1.22 -25.57,-9.82 -26.25,-10.38l-0.04 -7.6 34.46 13.9c7.15,3.05 17.88,7.65 21.68,14.55 0.69,1.25 1.25,2.93 1.39,4.63 0.08,0.93 -0.05,2.18 0.07,2.99 0.22,1.43 0.98,0.76 1.51,1.92l0.54 -0.51c1.18,-1.17 0.77,-0.29 1.41,-1.22 -0.24,-0.29 -0.14,-0.03 -0.24,-0.62 -0.15,-0.93 0.28,-2.06 -0.49,-5.12 -1.18,-4.7 -4.15,-7.99 -7.97,-10.78 -7.97,-5.81 -24.62,-12.16 -34.45,-16.05 -6.03,-2.39 -12.07,-4.79 -17.92,-7.26l0.02 -1.75 0.06 -7.3c3.75,-0.76 7.79,-2.11 11.51,-3.13 11.96,-3.26 22.24,-6.42 34.76,-8.83 8.57,-1.64 17.21,-2.71 26.57,-2.19 4.4,0.24 8.64,0.92 12.51,2.01 2.94,0.83 8.37,2.69 10.31,4.16 0.38,-3.65 1.43,-7.11 1.6,-11.06 0.09,-1.93 0.38,-3.83 0.42,-5.83 0.04,-2.07 0.06,-4.18 0.03,-6.26 -0.11,-7.82 -1.43,-15.49 -3.04,-22.03 -0.42,-1.7 -0.84,-3.2 -1.37,-4.89 -3.08,-9.91 -6.68,-17.02 -12.06,-25.49l-8.19 -10.8c-2.03,-2.26 -4.02,-4.24 -6.16,-6.35 -4.15,-4.08 -8.9,-7.97 -13.98,-11.26 -1.35,-0.88 -2.45,-1.55 -3.87,-2.4 -7.55,-4.52 -12.99,-6.86 -21.62,-9.66l-5.98 -1.8c-0.5,-0.1 -0.99,-0.1 -1.53,-0.21 -1.09,-0.24 -1.56,-0.46 -2.79,-0.57 0.37,1.09 0.81,1.37 1.04,2.55 -1.16,0.35 -8.13,4.52 -10.05,5.52 -0.9,0.48 -9.09,5.43 -9.84,5.31 -0.17,-0.03 -18.83,-10.55 -19.56,-11.15l1.33 -2.77c-0.92,0.48 -3.96,1.01 -5.13,1.29 -3.98,0.95 -11.2,3.03 -14.73,4.69 -4.14,1.93 -9.19,3.91 -13.04,6.4 -1.3,0.84 -2.67,1.71 -3.98,2.48l-3.84 2.64c-0.78,0.52 -1.09,0.9 -1.82,1.4l-7.99 6.69c-4.43,4.58 -7.61,7.55 -11.42,12.75l-3.92 5.57c-2.07,2.99 -5.57,9.19 -6.96,12.46 -3.12,7.3 -4.8,11.21 -6.66,19.25 -2.88,12.45 -3.33,22.49 -1.87,35.29 0.58,5.19 1.38,7.21 1.9,11z"/>
   <path class="fil1" d="M77.31 208.93c-0.69,0.06 -1.1,0.14 -1.8,0.22 -0.13,0.02 -0.89,0.11 -0.96,0.11l-0.49 -0.05c-0.02,-0.06 -0.11,-0.02 -0.16,-0.04 -0.21,0.14 -14.71,2.47 -15.57,2.41 -0.5,0.54 -2.3,0.71 -3.15,0.84 -1.3,0.55 -5.45,1.21 -7.11,1.63 -1.49,0.38 -5.42,1.25 -6.62,1.9 1.2,1.55 9.29,6.26 11.73,7.52 25.08,12.91 52.77,15.26 79.78,5.99 4.62,-1.58 9.49,-3.7 13.53,-5.88 2.3,-1.24 10.99,-6.21 11.88,-7.56 -0.72,-0.62 -4.68,-1.52 -5.98,-1.8 -1.06,-0.23 -2.12,-0.5 -3.19,-0.73 -1.2,-0.25 -1.99,-0.56 -3.1,-0.73l-3.16 -0.8 -16.04 -2.52 -3.37 -0.34c-1.43,-0.37 -4,-0.38 -5.58,-0.57 -6.02,-0.69 -23.72,-1 -29.44,-0.43 -1.63,0.16 -3.94,0.3 -5.67,0.36 -1.89,0.07 -3.62,0.41 -5.53,0.47z"/>
   <path class="fil2" d="M102.07 170.96l-0.02 1.75c5.85,2.47 11.89,4.87 17.92,7.26 9.83,3.89 26.48,10.24 34.45,16.05 3.82,2.79 6.79,6.08 7.97,10.78 0.77,3.06 0.34,4.19 0.49,5.12 0.1,0.59 0,0.33 0.24,0.62l3.92 -3.36c5.78,-4.91 12.71,-13.39 16.86,-19.82 1.43,-2.21 4.44,-6.88 5.3,-9.38 -0.97,-0.17 -3.01,-1.95 -4.02,-2.63 -2.89,-1.93 -5.84,-3.47 -8.74,-5.08l-9.53 -4.01c-6.42,-1.96 -10.07,-2.91 -17.16,-3.61 -3,-0.3 -10.04,-0.8 -13.15,-0.32 -2.36,0.36 -5.19,0.27 -6.38,0.52 -3.19,0.67 -6.56,0.75 -9.95,1.81l-18.2 4.3z"/>
   <path class="fil3" d="M102.07 170.96l18.2 -4.3c3.39,-1.06 6.76,-1.14 9.95,-1.81 1.19,-0.25 4.02,-0.16 6.38,-0.52 3.11,-0.48 10.15,0.02 13.15,0.32 7.09,0.7 10.74,1.65 17.16,3.61l9.53 4.01c2.9,1.61 5.85,3.15 8.74,5.08 1.01,0.68 3.05,2.46 4.02,2.63 2.25,-2.67 8.21,-19.6 8.59,-24.3 -1.94,-1.47 -7.37,-3.33 -10.31,-4.16 -3.87,-1.09 -8.11,-1.77 -12.51,-2.01 -9.36,-0.52 -18,0.55 -26.57,2.19 -12.52,2.41 -22.8,5.57 -34.76,8.83 -3.72,1.02 -7.76,2.37 -11.51,3.13l-0.06 7.3z"/>
   <path class="fil3" d="M12.94 184.25l4.9 1.86c2.59,0.97 5.13,1.54 7.94,2.01 8.89,1.47 18.49,0.57 27.09,-1.63l28.21 -8.48c0.89,-0.37 1.59,-0.48 2.66,-0.83 3.54,-1.17 12.17,-4.6 15.09,-4.98l0.03 -7.57 -11.82 2.75c-25.77,5.8 -50.14,6.94 -74.61,-3.92l-9.72 -5.02c0.9,4.8 2.59,9.53 4.29,13.69 1.48,3.65 3.82,9.27 5.94,12.12z"/>
   <path class="fil4" d="M55 111.39c0,2.81 -0.38,1.76 4.5,4.57l16.9 9.64c3.8,2.11 7.63,4.43 11.29,6.4 1.84,0.99 10.05,6.06 11.24,6.26l0.02 -23.85c-0.78,-0.74 -3.95,-2.37 -4.96,-2.93l-15.41 -8.77c-3.54,-1.97 -6.73,-3.99 -10.16,-5.81 -1.7,-0.9 -3.5,-1.94 -5.09,-2.9 -1.26,-0.75 -4.13,-2.53 -5.3,-2.9 -1.77,2.83 -3.03,16.51 -3.03,20.29z"/>
   <path class="fil4" d="M102.16 115.27l0.02 22.73c2.08,-0.69 37.69,-21.43 44.05,-24.67 0.35,-5.57 -1.27,-17.64 -2.98,-22.22l-39.11 21.94c-1.25,0.69 -1.98,0.55 -1.98,2.22z"/>
   <path class="fil4" d="M82.17 36.53l-1.33 2.77c0.73,0.6 19.39,11.12 19.56,11.15 0.75,0.12 8.94,-4.83 9.84,-5.31 1.92,-1 8.89,-5.17 10.05,-5.52 -0.23,-1.18 -0.67,-1.46 -1.04,-2.55 -0.74,-0.49 -8.64,-16.1 -9.7,-18.19 -1.57,-3.1 -3.01,-6.29 -4.58,-9.44l-3.19 -7.17c-0.21,-0.51 -0.33,-0.77 -0.51,-1.22 -0.09,-0.21 -0.16,-0.42 -0.25,-0.62l-0.7 -0.43 -16.89 34.52c-0.18,0.34 -0.39,0.73 -0.6,1.12l-0.66 0.89z"/>
   <path class="fil4" d="M102.19 86.79l-0.02 23.46c1.42,-0.25 17.4,-9.64 20.19,-11.13l19.86 -11.25c-0.18,-2.52 -4.7,-13.65 -6.22,-17.13l-1.16 -2.33c-0.96,0.24 -21.7,12.14 -24.53,13.7l-7.6 4.27c-0.32,0.22 -0.28,0.19 -0.52,0.41z"/>
   <path class="fil4" d="M58.93 87.86c3.32,1.68 6.51,3.74 9.89,5.63 3.45,1.92 6.63,3.7 10.05,5.68 3.32,1.93 6.74,3.78 10.04,5.72 1.83,1.07 8.77,5.27 10.02,5.58l0.01 -23.61 -24.41 -13.97c-1.49,-0.88 -2.53,-1.44 -4.12,-2.35 -1.04,-0.6 -3.07,-1.97 -4.17,-2.3 -1.26,3.11 -2.62,6.2 -3.94,9.44 -0.74,1.82 -3.21,8.33 -3.37,10.18z"/>
   <path class="fil4" d="M102.18 157.21c12.99,-0.17 23.38,-5.39 30.43,-11.59 6.87,-6.05 12.09,-15.64 13.42,-28.42 -1.46,0.57 -24.82,13.87 -26.83,15.01 -4.63,2.61 -8.63,4.89 -13.39,7.52 -4.34,2.39 -3.65,1.1 -3.65,6.83 0,3.55 0.02,7.1 0.02,10.65z"/>
   <path class="fil4" d="M98.95 157.13l0 -14.89c-0.59,-0.58 -42.63,-24.57 -43.7,-24.87 0.47,10.76 5.98,21.59 13.35,28.33 3.2,2.92 7.89,5.99 12.94,7.98 3.67,1.44 12.84,4.05 17.41,3.45z"/>
   <path class="fil4" d="M67.73 65.22c0.57,0.54 2.9,1.75 3.79,2.27 1.29,0.74 2.51,1.39 3.86,2.18 1.84,1.07 22.53,13.14 23.58,13.23 -0.03,-9.37 0.19,-20.41 -0.03,-29.47l-9.7 -5.6c-1.49,-0.85 -9.21,-5.38 -10.12,-5.6 -0.58,1.97 -10.69,19.68 -11.38,22.99z"/>
   <path class="fil4" d="M102.19 53.27l-0.03 29.58c1.25,-0.37 2.97,-1.51 4.14,-2.17l23.19 -13.03c1.25,-0.7 2.65,-1.62 4.01,-2.25 -0.37,-1.72 -10.44,-21.47 -11.61,-23.01 -0.99,0.23 -12.14,6.68 -14.7,8.13 -1.59,0.9 -3.51,2.15 -5,2.75z"/>
   <path class="fil2" d="M12.94 184.25c2.65,6.09 11.85,17.25 17.15,22.39 2.66,2.57 4.44,3.91 6.92,6.15 0.67,-0.47 0.29,-1.22 0.41,-3 0.06,-0.94 0.19,-1.76 0.43,-2.71 2.52,-10.19 15.97,-15.91 24.98,-19.71 11.04,-4.67 22.9,-9.28 34.2,-13.91 0.73,-0.3 1.72,-0.4 1.8,-1.26 -2.92,0.38 -11.55,3.81 -15.09,4.98 -1.07,0.35 -1.77,0.46 -2.66,0.83l-28.21 8.48c-8.6,2.2 -18.2,3.1 -27.09,1.63 -2.81,-0.47 -5.35,-1.04 -7.94,-2.01l-4.9 -1.86z"/>
   <path class="fil2" d="M38.74 214.1c0.92,0.71 1.61,1.49 2.71,1.85 1.2,-0.65 5.13,-1.52 6.62,-1.9 1.66,-0.42 5.81,-1.08 7.11,-1.63 -0.39,-2.91 -0.01,-5.2 1.31,-7.44 1.29,-2.21 2.63,-3.15 4.44,-4.62 6.94,-5.64 35.85,-14.87 37.94,-16.48l0 -7.61 -34.96 14.13c-9.1,3.98 -22.2,9.08 -23.29,19.46 -0.24,2.32 0.72,3.97 -1.88,4.24z"/>
   <path class="fil2" d="M146.1 212.76c1.11,0.17 1.9,0.48 3.1,0.73 1.07,0.23 2.13,0.5 3.19,0.73 1.3,0.28 5.26,1.18 5.98,1.8 1.06,-0.43 2.04,-1.57 2.8,-1.75 -0.53,-1.16 -1.29,-0.49 -1.51,-1.92 -0.12,-0.81 0.01,-2.06 -0.07,-2.99 -0.14,-1.7 -0.7,-3.38 -1.39,-4.63 -3.8,-6.9 -14.53,-11.5 -21.68,-14.55l-34.46 -13.9 0.04 7.6c0.68,0.56 23.23,9.16 26.25,10.38 5.76,2.32 13.48,5.77 16.56,11.05 1.69,2.89 1.14,4.14 1.19,7.45z"/>
   <path class="fil2" d="M126.9 209.44l16.04 2.52c0.21,-2.95 -0.22,-4.68 -1.73,-6.4 -4.86,-5.56 -19.93,-10.72 -27.4,-13.59l-11.73 -4.42 0.01 7.96c4.72,1.53 9.98,3.01 14.56,4.83 4.37,1.73 9.85,4.05 10.25,9.1z"/>
   <path class="fil2" d="M58.33 211.58c0.86,0.06 15.36,-2.27 15.57,-2.41 1.15,-6.59 11.08,-9.27 17.55,-11.28 2.34,-0.72 5.07,-1.76 7.42,-2.31l0.01 -8.05c-1.6,0.39 -21.28,8.18 -23.27,8.96 -3.51,1.38 -8.04,3.39 -10.94,5.25 -3.2,2.05 -6.88,4.3 -6.34,9.84z"/>
   <path class="fil2" d="M77.31 208.93c1.91,-0.06 3.64,-0.4 5.53,-0.47 1.73,-0.06 4.04,-0.2 5.67,-0.36 5.72,-0.57 23.42,-0.26 29.44,0.43 1.58,0.19 4.15,0.2 5.58,0.57 -0.73,-3.31 -6.7,-5.37 -10.33,-6.6 -1.55,-0.52 -11.92,-4.02 -12.68,-4.04 -0.72,-0.02 -11.27,3.48 -12.84,4.07 -3.64,1.34 -9.43,3.13 -10.37,6.4z"/>
  </g>
 </g>
</svg>
